<svg width="484" height="208" viewBox="0 0 484 208" fill="none" xmlns="http://www.w3.org/2000/svg">
<circle cx="100" cy="108" r="94.5" stroke="black" stroke-width="11"/>
<circle cx="384" cy="100" r="94.5" stroke="black" stroke-width="11"/>
<path d="M192 130C208 112.333 250.8 87.6 294 130" stroke="black" stroke-width="12"/>
<line x1="194" y1="103" x2="296" y2="103" stroke="black" stroke-width="10"/>
<path d="M204 112C201.391 112 200.546 113.186 198.778 114.778C195.661 117.583 202.226 114.219 203.222 113.222C204.711 111.734 205.578 109.492 206.778 107.778C207.816 106.294 204.685 106 204 106C201.79 106 202.621 106.711 201.5 108.056C196.739 113.769 206.805 108.111 202.444 108.111C199.532 108.111 198.822 113.349 201.5 113.944C206.726 115.106 208.097 107.301 212 106" stroke="black" stroke-width="3" stroke-linecap="round"/>
<path d="M280 112C280 106.312 280.963 112.852 281.556 113.444C282.823 114.712 289 114.348 289 112C289 108.963 282.57 110 280.5 110C278.904 110 271.459 110 276.778 110C278.598 110 279.765 109.658 280.778 108C282.061 105.9 283.869 106.713 285.5 105.444C288.815 102.866 289.123 101.932 285 104.222C282.341 105.699 279.909 107.073 277.5 109C274.235 111.612 272.341 108.359 277 110.222C280.2 111.502 284.017 111 287.444 111C289.686 111 289.642 115.054 286 112.778C283.685 111.331 284.105 108.216 282.444 106.556C281.462 105.573 279.249 106 278 106C276.554 106 272.644 105.2 273.667 106.222C276.941 109.496 284.737 112 289.278 112C292.135 112 283.525 111.115 281 109.778C278.272 108.334 280.685 102.504 283 106.556C284.633 109.413 286.698 112 282 112C276.354 112 271.949 110.767 266.778 108.778C259.991 106.167 254.693 105.019 247 106.778C239.817 108.419 231.428 108 224 108C219.439 108 211.146 106.379 207 108.222C204.87 109.169 198.943 109.168 197.556 110.556C196.031 112.081 197.12 116.963 197 119C196.89 120.877 196.543 115.307 196.944 113.5C197.229 112.218 197.695 106.139 196.778 105.222C196.744 105.189 200.215 106.437 202.5 106.944C205.234 107.552 208.988 107.112 211.778 107C214.694 106.883 208.287 110.206 206.5 111C202.847 112.624 202.327 114 198 114" stroke="black" stroke-width="3" stroke-linecap="round"/>
</svg>
